<svg id="Layer_1" data-name="Layer 1" xmlns="http://www.w3.org/2000/svg" viewBox="0 0 143.35 233.97"><defs><style>.cls-1{fill:#fff;}</style></defs><path class="cls-1" d="M494.09,323.46l-.62,0c0-2.5.14-5,0-7.49a89.86,89.86,0,0,0-1.21-11.49c-.81-4-2.21-7.87-3.42-11.78-1.45-4.7-1.91-10.2-4.75-13.85s-3-9.32-7.76-11.74a5.25,5.25,0,0,1-1.72-2.4c-3.78-7.69-10.41-11.85-18.22-14.31-4.93-1.55-10-2.62-15.06-3.76-.35-.08-1.08,1.05-1.45,1.72s-.52,2.17-.79,2.17c-5.22.11-10.73,1.28-14.69-3.78-.51-.65-1.77-.84-2.72-1-5.81-.76-11.7-1.13-17.43-2.26-4.72-.93-8.87.53-13.12,1.8-6.72,2-11.31,7.13-16.41,11.5-4.58,3.93-8.89,8.05-11.12,13.85-.84,2.2-1.14,4.82-2.53,6.56-3.34,4.15-5.45,8.15-5.48,13.94-.05,6.06-2.27,12.13-3.84,18.12-1.16,4.48-1.51,8.78.17,13.21.5,1.32.94,3.23.35,4.29-2.42,4.43-.58,7.76,1.87,11.35,1.27,1.87,2.54,4.35,2.4,6.46-.28,4.22-.29,8.83-4.2,11.9-.38.3-.9.83-.85,1.18.14.95.46,2.64.86,2.68,4,.45,3.31,3.29,3.28,5.88A270,270,0,0,1,353.86,394a86.18,86.18,0,0,0-.23,13c.13,3.93.17,8,1.18,11.73,1.8,6.66,3.15,13.28,2.77,20.22a8.56,8.56,0,0,0,4.13,8.15,5.8,5.8,0,0,1,1.54,2.48c1.7,3.6,3.57,6.89,6.93,9.47,3.17,2.43,8,3.46,8.66,8.53,0,.16.39.29.59.43,3.66,2.57,7.3,5.18,11,7.69a6.15,6.15,0,0,0,3,1.33q10.44.23,20.9.09a4.33,4.33,0,0,0,2.91-1.36c1.4-1.64,3-1.69,4.75-1.14,6.79,2.13,13.56,1.18,20.3-.19,4-.81,7.93-1.82,11.9-2.76a4.39,4.39,0,0,0,1.39-.52c4.15-2.84,9.61-3.69,12.59-8.32.32-.48,1-.67,1.52-1.07,2.67-2.24,6.05-4.05,7.84-6.86,2.75-4.33,5.19-9,5.35-14.51.05-1.78,1-3.53,1.16-5.33.34-5,.05-10.07.75-15,.82-5.89,3-11.63,3.51-17.52.49-5.39-.63-10.9-.59-16.36,0-6.28-2.24-12.64.52-18.87a4.92,4.92,0,0,0,0-2.56c-.48-3.08-.91-6.18-1.6-9.21-.73-3.22.34-5.75,2.09-8.38a20.83,20.83,0,0,0,3.4-7.35C493.14,334.41,493.48,328.91,494.09,323.46Z" transform="translate(-350.74 -243.18)"/><path d="M494.09,323.46c-.61,5.45-.95,11-1.94,16.33a20.83,20.83,0,0,1-3.4,7.35c-1.75,2.63-2.82,5.16-2.09,8.38.69,3,1.12,6.13,1.6,9.21a4.92,4.92,0,0,1,0,2.56c-2.76,6.23-.48,12.59-.52,18.87,0,5.46,1.08,11,.59,16.36-.55,5.89-2.69,11.63-3.51,17.52-.7,4.94-.41,10-.75,15-.12,1.8-1.11,3.55-1.16,5.33-.16,5.47-2.6,10.18-5.35,14.51-1.79,2.81-5.17,4.62-7.84,6.86-.48.4-1.2.59-1.52,1.07-3,4.63-8.44,5.48-12.59,8.32a4.39,4.39,0,0,1-1.39.52c-4,.94-7.91,1.95-11.9,2.76-6.74,1.37-13.51,2.32-20.3.19-1.75-.55-3.35-.5-4.75,1.14a4.33,4.33,0,0,1-2.91,1.36q-10.45.13-20.9-.09a6.15,6.15,0,0,1-3-1.33c-3.7-2.51-7.34-5.12-11-7.69-.2-.14-.57-.27-.59-.43-.66-5.07-5.49-6.1-8.66-8.53-3.36-2.58-5.23-5.87-6.93-9.47a5.8,5.8,0,0,0-1.54-2.48,8.56,8.56,0,0,1-4.13-8.15c.38-6.94-1-13.56-2.77-20.22-1-3.75-1.05-7.8-1.18-11.73a86.18,86.18,0,0,1,.23-13,270,270,0,0,0,1.74-27.83c0-2.59.72-5.43-3.28-5.88-.4,0-.72-1.73-.86-2.68,0-.35.47-.88.85-1.18,3.91-3.07,3.92-7.68,4.2-11.9.14-2.11-1.13-4.59-2.4-6.46-2.45-3.59-4.29-6.92-1.87-11.35.59-1.06.15-3-.35-4.29-1.68-4.43-1.33-8.73-.17-13.21,1.57-6,3.79-12.06,3.84-18.12,0-5.79,2.14-9.79,5.48-13.94,1.39-1.74,1.69-4.36,2.53-6.56,2.23-5.8,6.54-9.92,11.12-13.85,5.1-4.37,9.69-9.5,16.41-11.5,4.25-1.27,8.4-2.73,13.12-1.8,5.73,1.13,11.62,1.5,17.43,2.26,1,.13,2.21.32,2.72,1,4,5.06,9.47,3.89,14.69,3.78.27,0,.41-1.48.79-2.17s1.1-1.8,1.45-1.72c5.05,1.14,10.13,2.21,15.06,3.76,7.81,2.46,14.44,6.62,18.22,14.31a5.25,5.25,0,0,0,1.72,2.4c4.78,2.42,4.84,8,7.76,11.74s3.3,9.15,4.75,13.85c1.21,3.91,2.61,7.79,3.42,11.78a89.86,89.86,0,0,1,1.21,11.49c.17,2.49,0,5,0,7.49ZM485.29,363c-.42-4.23-.7-9-1.46-13.61-.21-1.24-1.76-3-2.88-3.17a4.27,4.27,0,0,0-4.76,2.85c-.47,1.29-.87,2.61-1.41,3.87-.68,1.61-1.43,3.19-2.23,4.73-.17.33-.71.47-1.07.69.09-.34.16-.69.28-1,.21-.59.5-1.15.65-1.75,1.2-4.83,2.94-9.7.87-14.65s-5-9-11.45-9.38c-7.8-.52-15.32.84-22.81,2.31-5.51,1.09-7.49,4.45-7.54,10.08a22.22,22.22,0,0,0,3.58,12.77,9.83,9.83,0,0,1,.7,1.59,14.16,14.16,0,0,1-1.34-1.22c-3.13-3.52-3.89-8-5-12.36a5,5,0,0,0-5-4.22c-2.74-.14-4.95.68-6.14,3.32-.62,1.36-1.12,2.78-1.61,4.19-1.56,4.5-4.49,8-7.9,11.21-.43.4-1.47.15-2.23.2.37-.51.69-1,1.1-1.52,2-2.32,4.2-4.47,6-7,1.11-1.59,1.24-3.88,2.37-5.44a5.15,5.15,0,0,0,.42-5.86c-.42-.88-.74-1.8-1.11-2.7,0,1-.09,2,0,3,.23,3.56-2.12,9.11-4.48,9.74a104.07,104.07,0,0,1-12.39,2.69c-2.49.33-5.29.41-7.24-2-1.26-1.54-2.54-3.07-3.94-4.49-1.72-1.74-3.3-3.76-6.38-2.86-.61.17-2-1-2.45-1.82-1.45-2.56-.22-5.44,2.76-6.6s6.1-2.18,9.14-3.3a6.51,6.51,0,0,0,1.19-.74c-.44-.19-.88-.56-1.3-.55-2.48.09-5,.13-7.44.44-4.7.59-7.63,3.42-9,7.84-1.53,4.85-.6,9.62.68,14.36a9.32,9.32,0,0,1,.15,1.06c-.33-.24-.85-.42-1-.74q-1.36-4.26-2.6-8.56a6.67,6.67,0,0,0-6.52-4.38c-2.84.12-3.41,2.13-3.7,4.34-1.25,9.6-1.29,19.13,1.22,28.6,2.41,9.06,7.54,16.64,12.72,24.21.85,1.24,1.48,2.81,2.63,3.61a15.68,15.68,0,0,1,6.62,9.45c.22.86,1.46,1.69,2.41,2.08,2.62,1.07,5.32,1.95,8,2.79,1.72.53,2.3,1.42,2.16,3.3-.09,1.06.8,2.3,1.5,3.28a6.67,6.67,0,0,0,2.24,1.91c3,1.62,6,3.21,9.08,4.6.51.24,1.49-.81,2.3-.9s2.22-.09,2.56.41c2.14,3.2,5.48,3.15,8.65,3.39a3.62,3.62,0,0,0,2.83-1.24c.95-1.43,1.31-1.37,2.38-.13,1.63,1.91,3.64,2.15,6,1a10.63,10.63,0,0,1,5.35-1.14c2.5.28,4.56.84,7.24-.53,1.77-.91,2.38-1.07,2-3-.07-.41,1.07-1,1.65-1.55,2.27,2.57,2.62.32,3.92-1.18,1.85-2.13,2.31-6.19,6.64-5.57.4.06,1.28-1.15,1.44-1.88.38-1.85.78-3.39,3.21-3.15a2.89,2.89,0,0,0,1.62-.82c7.24-5.69,12.49-12.53,13.62-22.09.36-3,2.25-5.87,2.69-8.91C484.42,375.25,484.72,369.39,485.29,363Zm.81-47.68c-1-3.5-2.35-8.14-3.77-12.75-.48-1.54-1.43-2.94-1.8-4.49a46.23,46.23,0,0,0-15.86-25.56,27.75,27.75,0,0,0-18.59-6.74c-6.46.13-13-.43-19.4,0-9.86.63-20.06.14-28.7,6.53-1.57,1.15-3.65,1.59-5.44,2.46-3.85,1.86-7.61,3.77-9,8.34a14.13,14.13,0,0,1-2.19,3.91c-1.48,2-3,3.69-6.16,3.23-1.53-.22-3.46,1.08-4.93,2.09-1.3.89-2.14,2.42-3.31,3.54-4.35,4.21-2.09,9.59-2.58,14.47,0,.33.87.71,1.21,1.16s.61,1,.47,1.22c-3.85,6.54-3.64,13.87-4.12,21a3.1,3.1,0,0,0,2.78,3.46c3.5.59,9.86-3.33,10.51-7,.86-4.84,4.29-6.51,8.16-8.28,5.88-2.69,11.66-1.15,17.61-.57a20.9,20.9,0,0,1,15.9,9c4.13,5.65,13.11,5.21,17.21-.52a11.39,11.39,0,0,1,8-5c6.48-.71,12.93-.51,18.48,3.89,1.31,1,3.3,2.27,4.69,2,3.93-.8,5.37,1.57,6.92,4.23,1.26,2.15,3,4.12,3.83,6.42,1.15,3.08,3.34,2.91,5.75,2.62,2.9-.36,3-2.56,3-4.76,0-3.48-.28-7-.08-10.44C484.89,324.82,485.51,320.74,486.1,315.35Zm-85.92,32.4.1.76c1.73-.59,4.71-.86,5-1.82.66-2.65,2.28-4.82,2.93-7.38a2.4,2.4,0,0,0-1-2.06c-1.6-.83-2.64-.55-3.12,1.63-.39,1.79-1.28,3.94-2.66,4.91s-3.65.88-5.25.36c-1.06-.34-1.6-2.28-2.4-3.48-.44-.65-.93-1.76-1.42-1.77a3.06,3.06,0,0,0-2.1,1.26c-2,2.65,0,7.22,3.25,7.55C395.7,347.93,398,347.75,400.18,347.75Z" transform="translate(-350.74 -243.18)"/><path class="cls-1" d="M485.29,363c-.57,6.36-.87,12.22-1.72,18-.44,3-2.33,5.88-2.69,8.91-1.13,9.56-6.38,16.4-13.62,22.09a2.89,2.89,0,0,1-1.62.82c-2.43-.24-2.83,1.3-3.21,3.15-.16.73-1,1.94-1.44,1.88-4.33-.62-4.79,3.44-6.64,5.57-1.3,1.5-1.65,3.75-3.92,1.18-.58.52-1.72,1.14-1.65,1.55.33,1.9-.28,2.06-2,3-2.68,1.37-4.74.81-7.24.53a10.63,10.63,0,0,0-5.35,1.14c-2.4,1.14-4.41.9-6-1-1.07-1.24-1.43-1.3-2.38.13a3.62,3.62,0,0,1-2.83,1.24c-3.17-.24-6.51-.19-8.65-3.39-.34-.5-1.71-.51-2.56-.41s-1.79,1.14-2.3.9c-3.1-1.39-6.1-3-9.08-4.6a6.67,6.67,0,0,1-2.24-1.91c-.7-1-1.59-2.22-1.5-3.28.14-1.88-.44-2.77-2.16-3.3-2.71-.84-5.41-1.72-8-2.79-.95-.39-2.19-1.22-2.41-2.08a15.68,15.68,0,0,0-6.62-9.45c-1.15-.8-1.78-2.37-2.63-3.61-5.18-7.57-10.31-15.15-12.72-24.21-2.51-9.47-2.47-19-1.22-28.6.29-2.21.86-4.22,3.7-4.34A6.67,6.67,0,0,1,371,344.5q1.23,4.31,2.6,8.56c.1.32.62.5,1,.74a9.32,9.32,0,0,0-.15-1.06c-1.28-4.74-2.21-9.51-.68-14.36,1.39-4.42,4.32-7.25,9-7.84,2.46-.31,5-.35,7.44-.44.42,0,.86.36,1.3.55a6.51,6.51,0,0,1-1.19.74c-3,1.12-6.13,2.12-9.14,3.3s-4.21,4-2.76,6.6c.48.84,1.84,2,2.45,1.82,3.08-.9,4.66,1.12,6.38,2.86,1.4,1.42,2.68,2.95,3.94,4.49,2,2.39,4.75,2.31,7.24,2a104.07,104.07,0,0,0,12.39-2.69c2.36-.63,4.71-6.18,4.48-9.74-.07-1,0-2,0-3,.37.9.69,1.82,1.11,2.7a5.15,5.15,0,0,1-.42,5.86c-1.13,1.56-1.26,3.85-2.37,5.44-1.75,2.49-4,4.64-6,7-.41.47-.73,1-1.1,1.52.76,0,1.8.2,2.23-.2,3.41-3.17,6.34-6.71,7.9-11.21.49-1.41,1-2.83,1.61-4.19,1.19-2.64,3.4-3.46,6.14-3.32a5,5,0,0,1,5,4.22c1.11,4.35,1.87,8.84,5,12.36a14.16,14.16,0,0,0,1.34,1.22,9.83,9.83,0,0,0-.7-1.59A22.22,22.22,0,0,1,431.48,344c0-5.63,2-9,7.54-10.08,7.49-1.47,15-2.83,22.81-2.31,6.43.43,9.32,4.32,11.45,9.38s.33,9.82-.87,14.65c-.15.6-.44,1.16-.65,1.75-.12.33-.19.68-.28,1,.36-.22.9-.36,1.07-.69.8-1.54,1.55-3.12,2.23-4.73.54-1.26.94-2.58,1.41-3.87a4.27,4.27,0,0,1,4.76-2.85c1.12.16,2.67,1.93,2.88,3.17C484.59,354.07,484.87,358.8,485.29,363Zm-36.6-29.33c-3.51.76-7.07,1.37-10.53,2.34a6.36,6.36,0,0,0-5,5.93c-.23,2.85-.61,5.85,3,7.22.52.2.87.87,1.3,1.31,4.29,4.41,9.57,6.11,15.61,5.77a9.89,9.89,0,0,0,1.09-.17,3.9,3.9,0,0,0-.74-.67c-3.18-1.62-6.36-3.26-9.58-4.8-2.38-1.15-2.71-3.4-3.12-5.58a1.75,1.75,0,0,1,.85-1.46c.37-.17,1.13.21,1.53.56a7.37,7.37,0,0,1,1,1.56c2.75,4.07,6.24,3.93,8.67-.32A21.73,21.73,0,0,1,454.7,343a33.26,33.26,0,0,1,2.94,3.6c.3.49-.16,1.43-.22,2.17a10.11,10.11,0,0,0,.07,1.34l1.1-.87a9,9,0,0,1,1.13-.93c1.8-1,3.67-1.95,5.44-3s1.49-2.35-.09-3.48a42.29,42.29,0,0,0-4.85-3.48C456.62,336.36,453.18,333.88,448.69,333.7Zm-39,40.19c-1.55,1.15-3.24,1.95-4.19,3.28a4.09,4.09,0,0,0,.11,3.65,54.51,54.51,0,0,0,4.54,5.79c1.34,1.65,2.65,3,5,1.41a3.44,3.44,0,0,1,3,.06c3.82,2.1,6.5,1.81,7.08-2.16.72-4.88,3.66-4.1,6.64-4.31a2.24,2.24,0,0,0,1.09-.19c.84-.6,2.19-1.26,2.23-2a3.65,3.65,0,0,0-1.68-2.57,6.74,6.74,0,0,0-8.9,2c-1.64,2.68-3.37,2-5.28.77-1-.67-1.79-1.79-2.85-2.39C414.44,376.1,412.31,375.18,409.67,373.89Zm15.63,24.8.06-.56c2.35.18,4.72.27,7.07.57,3.32.43,6.61,1.25,9.94,1.5,5,.37,6.5-2,4.21-6.43a9,9,0,0,0-1.43-1.61,10,10,0,0,0-1.27,1.68c-2.12,4.49-4.3,5.21-8.92,3.18-2.13-.94-4.44-2-6.69-2.06-4.35-.07-8.65.31-12.92-1.09-1.16-.38-2.7.2-4,.51-1.58.38-3.09,1-4.66,1.42-3.27.8-4.38.2-5.88-2.87a5.56,5.56,0,0,0-.92-1.42c-1.7.72-4.1-.29-5.11,2.11-.89,2.11-1.37,3.86,1.28,5.3,3.64,2,7.11.8,10.46-.32a20,20,0,0,1,9.93-.87C419.36,398.22,422.34,398.38,425.3,398.69Zm-5.69,5.85L410,406.06c-.25,0-.5,0-.74.09-1.52.32-1.62,1.18-.52,2,1.9,1.38,3.9,2.63,5.92,3.83,3.57,2.11,6.49,1.83,9.68-.83.48-.4.9-.86,1.37-1.26,2.06-1.78,1.89-3.47-.7-4.37A32.31,32.31,0,0,0,419.61,404.54Z" transform="translate(-350.74 -243.18)"/><path class="cls-1" d="M486.1,315.35c-.59,5.39-1.21,9.47-1.45,13.57-.2,3.47.07,7,.08,10.44,0,2.2-.13,4.4-3,4.76-2.41.29-4.6.46-5.75-2.62-.86-2.3-2.57-4.27-3.83-6.42-1.55-2.66-3-5-6.92-4.23-1.39.28-3.38-1-4.69-2-5.55-4.4-12-4.6-18.48-3.89a11.39,11.39,0,0,0-8,5c-4.1,5.73-13.08,6.17-17.21.52a20.9,20.9,0,0,0-15.9-9c-5.95-.58-11.73-2.12-17.61.57-3.87,1.77-7.3,3.44-8.16,8.28-.65,3.63-7,7.55-10.51,7a3.1,3.1,0,0,1-2.78-3.46c.48-7.17.27-14.5,4.12-21,.14-.24-.2-.88-.47-1.22s-1.24-.83-1.21-1.16c.49-4.88-1.77-10.26,2.58-14.47,1.17-1.12,2-2.65,3.31-3.54,1.47-1,3.4-2.31,4.93-2.09,3.13.46,4.68-1.18,6.16-3.23a14.13,14.13,0,0,0,2.19-3.91c1.43-4.57,5.19-6.48,9-8.34,1.79-.87,3.87-1.31,5.44-2.46,8.64-6.39,18.84-5.9,28.7-6.53,6.44-.42,12.94.14,19.4,0a27.75,27.75,0,0,1,18.59,6.74,46.23,46.23,0,0,1,15.86,25.56c.37,1.55,1.32,2.95,1.8,4.49C483.75,307.21,485.07,311.85,486.1,315.35Z" transform="translate(-350.74 -243.18)"/><path class="cls-1" d="M400.18,347.75c-2.23,0-4.48.18-6.69,0-3.28-.33-5.22-4.9-3.25-7.55a3.06,3.06,0,0,1,2.1-1.26c.49,0,1,1.12,1.42,1.77.8,1.2,1.34,3.14,2.4,3.48,1.6.52,4,.53,5.25-.36s2.27-3.12,2.66-4.91c.48-2.18,1.52-2.46,3.12-1.63a2.4,2.4,0,0,1,1,2.06c-.65,2.56-2.27,4.73-2.93,7.38-.24,1-3.22,1.23-5,1.82Z" transform="translate(-350.74 -243.18)"/><path d="M448.69,333.7c4.49.18,7.93,2.66,11.53,4.56a42.29,42.29,0,0,1,4.85,3.48c1.58,1.13,1.94,2.34.09,3.48s-3.64,2-5.44,3a9,9,0,0,0-1.13.93l-1.1.87a10.11,10.11,0,0,1-.07-1.34c.06-.74.52-1.68.22-2.17a33.26,33.26,0,0,0-2.94-3.6,21.73,21.73,0,0,0-1.88,2.44c-2.43,4.25-5.92,4.39-8.67.32a7.37,7.37,0,0,0-1-1.56c-.4-.35-1.16-.73-1.53-.56a1.75,1.75,0,0,0-.85,1.46c.41,2.18.74,4.43,3.12,5.58,3.22,1.54,6.4,3.18,9.58,4.8a3.9,3.9,0,0,1,.74.67,9.89,9.89,0,0,1-1.09.17c-6,.34-11.32-1.36-15.61-5.77-.43-.44-.78-1.11-1.3-1.31-3.59-1.37-3.21-4.37-3-7.22a6.36,6.36,0,0,1,5-5.93C441.62,335.07,445.18,334.46,448.69,333.7Z" transform="translate(-350.74 -243.18)"/><path d="M409.67,373.89c2.64,1.29,4.77,2.21,6.78,3.35,1.06.6,1.82,1.72,2.85,2.39,1.91,1.24,3.64,1.91,5.28-.77a6.74,6.74,0,0,1,8.9-2,3.65,3.65,0,0,1,1.68,2.57c0,.71-1.39,1.37-2.23,2a2.24,2.24,0,0,1-1.09.19c-3,.21-5.92-.57-6.64,4.31-.58,4-3.26,4.26-7.08,2.16a3.44,3.44,0,0,0-3-.06c-2.37,1.55-3.68.24-5-1.41a54.51,54.51,0,0,1-4.54-5.79,4.09,4.09,0,0,1-.11-3.65C406.43,375.84,408.12,375,409.67,373.89Z" transform="translate(-350.74 -243.18)"/><path d="M425.3,398.69c-3-.31-5.94-.47-8.87-1a20,20,0,0,0-9.93.87c-3.35,1.12-6.82,2.32-10.46.32-2.65-1.44-2.17-3.19-1.28-5.3,1-2.4,3.41-1.39,5.11-2.11a5.56,5.56,0,0,1,.92,1.42c1.5,3.07,2.61,3.67,5.88,2.87,1.57-.38,3.08-1,4.66-1.42,1.32-.31,2.86-.89,4-.51,4.27,1.4,8.57,1,12.92,1.09,2.25,0,4.56,1.12,6.69,2.06,4.62,2,6.8,1.31,8.92-3.18a10,10,0,0,1,1.27-1.68,9,9,0,0,1,1.43,1.61c2.29,4.41.8,6.8-4.21,6.43-3.33-.25-6.62-1.07-9.94-1.5-2.35-.3-4.72-.39-7.07-.57Z" transform="translate(-350.74 -243.18)"/><path d="M419.61,404.54a32.31,32.31,0,0,1,5.35,1c2.59.9,2.76,2.59.7,4.37-.47.4-.89.86-1.37,1.26-3.19,2.66-6.11,2.94-9.68.83-2-1.2-4-2.45-5.92-3.83-1.1-.81-1-1.67.52-2,.24,0,.49,0,.74-.09Z" transform="translate(-350.74 -243.18)"/></svg>